<svg viewBox="0 0 200 200" xmlns="http://www.w3.org/2000/svg">
  <!-- Outer Circle -->
  <circle cx="100" cy="100" r="95" fill="none" stroke="#1E3C72" stroke-width="3"/>
  
  <!-- Laurel Wreath Left -->
  <g id="laurel-left">
    <path d="M 60 100 Q 55 85 60 70 Q 65 60 75 55 Q 85 50 95 55" fill="none" stroke="#1E3C72" stroke-width="2"/>
    <circle cx="62" cy="95" r="2" fill="#FFD700"/>
    <circle cx="65" cy="85" r="2" fill="#FFD700"/>
    <circle cx="70" cy="75" r="2" fill="#FFD700"/>
    <circle cx="78" cy="65" r="2" fill="#FFD700"/>
    <circle cx="88" cy="58" r="2" fill="#FFD700"/>
  </g>
  
  <!-- Laurel Wreath Right -->
  <g id="laurel-right">
    <path d="M 140 100 Q 145 85 140 70 Q 135 60 125 55 Q 115 50 105 55" fill="none" stroke="#1E3C72" stroke-width="2"/>
    <circle cx="138" cy="95" r="2" fill="#FFD700"/>
    <circle cx="135" cy="85" r="2" fill="#FFD700"/>
    <circle cx="130" cy="75" r="2" fill="#FFD700"/>
    <circle cx="122" cy="65" r="2" fill="#FFD700"/>
    <circle cx="112" cy="58" r="2" fill="#FFD700"/>
  </g>
  
  <!-- Stars Top -->
  <g id="stars">
    <path d="M 85 45 L 88 52 L 95 52 L 90 57 L 92 64 L 85 60 L 78 64 L 80 57 L 75 52 L 82 52 Z" fill="#1E3C72"/>
    <path d="M 100 42 L 103 49 L 110 49 L 105 54 L 107 61 L 100 57 L 93 61 L 95 54 L 90 49 L 97 49 Z" fill="#1E3C72"/>
    <path d="M 115 45 L 118 52 L 125 52 L 120 57 L 122 64 L 115 60 L 108 64 L 110 57 L 105 52 L 112 52 Z" fill="#1E3C72"/>
  </g>
  
  <!-- Bull Symbol Left (Stylized) -->
  <g id="bull-left">
    <circle cx="75" cy="110" r="8" fill="none" stroke="#1E3C72" stroke-width="1.5"/>
    <line x1="70" y1="108" x2="65" y2="105" stroke="#1E3C72" stroke-width="1.5"/>
    <line x1="80" y1="108" x2="85" y2="105" stroke="#1E3C72" stroke-width="1.5"/>
    <path d="M 72 115 Q 75 120 78 115" fill="none" stroke="#1E3C72" stroke-width="1.5"/>
  </g>
  
  <!-- Bull Symbol Right (Stylized) -->
  <g id="bull-right">
    <circle cx="125" cy="110" r="8" fill="none" stroke="#1E3C72" stroke-width="1.5"/>
    <line x1="120" y1="108" x2="115" y2="105" stroke="#1E3C72" stroke-width="1.5"/>
    <line x1="130" y1="108" x2="135" y2="105" stroke="#1E3C72" stroke-width="1.5"/>
    <path d="M 122 115 Q 125 120 128 115" fill="none" stroke="#1E3C72" stroke-width="1.5"/>
  </g>
  
  <!-- NR Text -->
  <text x="100" y="125" font-size="40" font-weight="800" text-anchor="middle" fill="#1E3C72" font-family="Arial, sans-serif">NR</text>
  
  <!-- Subtitle -->
  <text x="100" y="145" font-size="11" text-anchor="middle" fill="#2A5298" font-family="Arial, sans-serif" letter-spacing="2">INVISIBLE GRILL</text>
  
  <!-- Decorative dots -->
  <circle cx="50" cy="165" r="2" fill="#FFD700"/>
  <circle cx="100" cy="170" r="2" fill="#FFD700"/>
  <circle cx="150" cy="165" r="2" fill="#FFD700"/>
</svg>